<svg width="45" height="21" viewBox="0 0 45 21" fill="none" xmlns="http://www.w3.org/2000/svg">
<path d="M11.75 1.02734V20H7.42578L4.85938 11.375V20H0.734375V1.02734H4.85938L7.625 9.57031V1.02734H11.75ZM18.6758 1.02734V20H13.7422V1.02734H18.6758ZM32.4102 1.02734L29.5859 9.59375L32.6797 20H27.582L25.5898 11.8672V20H20.6562V1.02734H25.5898V8.39844L27.7812 1.02734H32.4102ZM44.375 12.1367C44.375 14.043 44.3281 15.3945 44.2344 16.1914C44.1484 16.9805 43.8672 17.7031 43.3906 18.3594C42.9219 19.0156 42.2852 19.5195 41.4805 19.8711C40.6758 20.2227 39.7383 20.3984 38.668 20.3984C37.6523 20.3984 36.7383 20.2344 35.9258 19.9062C35.1211 19.5703 34.4727 19.0703 33.9805 18.4062C33.4883 17.7422 33.1953 17.0195 33.1016 16.2383C33.0078 15.457 32.9609 14.0898 32.9609 12.1367V8.89062C32.9609 6.98438 33.0039 5.63672 33.0898 4.84766C33.1836 4.05078 33.4648 3.32422 33.9336 2.66797C34.4102 2.01172 35.0508 1.50781 35.8555 1.15625C36.6602 0.804688 37.5977 0.628906 38.668 0.628906C39.6836 0.628906 40.5938 0.796875 41.3984 1.13281C42.2109 1.46094 42.8633 1.95703 43.3555 2.62109C43.8477 3.28516 44.1406 4.00781 44.2344 4.78906C44.3281 5.57031 44.375 6.9375 44.375 8.89062V12.1367ZM39.4414 5.90234C39.4414 5.01953 39.3906 4.45703 39.2891 4.21484C39.1953 3.96484 38.9961 3.83984 38.6914 3.83984C38.4336 3.83984 38.2344 3.94141 38.0938 4.14453C37.9609 4.33984 37.8945 4.92578 37.8945 5.90234V14.7617C37.8945 15.8633 37.9375 16.543 38.0234 16.8008C38.1172 17.0586 38.3281 17.1875 38.6562 17.1875C38.9922 17.1875 39.207 17.0391 39.3008 16.7422C39.3945 16.4453 39.4414 15.7383 39.4414 14.6211V5.90234Z" fill="#111111"/>
</svg>
